<?xml version="1.0" encoding="UTF-8"?>
<svg xmlns="http://www.w3.org/2000/svg" xmlns:xlink="http://www.w3.org/1999/xlink" width="256px" height="256px" viewBox="0 0 192 192" version="1.1">
<g id="surface1">
<path style=" stroke:none;fill-rule:nonzero;fill:rgb(75.294118%,22.745098%,16.862745%);fill-opacity:1;" d="M 188.621094 143.183594 L 106.261719 180.824219 L 106.261719 66.746094 L 188.621094 29.125 Z M 188.621094 143.183594 "/>
<path style=" stroke:none;fill-rule:nonzero;fill:rgb(90.196078%,29.803922%,23.529412%);fill-opacity:1;" d="M 3.164062 143.183594 L 85.523438 180.824219 L 85.523438 66.746094 L 3.164062 29.125 Z M 3.164062 143.183594 "/>
<path style=" stroke:none;fill-rule:nonzero;fill:rgb(75.294118%,22.745098%,16.862745%);fill-opacity:1;" d="M 85.523438 66.746094 L 106.261719 66.746094 L 106.261719 180.804688 L 85.523438 180.804688 Z M 85.523438 66.746094 "/>
<path style=" stroke:none;fill-rule:nonzero;fill:rgb(89.411765%,77.254902%,29.803922%);fill-opacity:1;" d="M 160.425781 99.898438 L 132.203125 112.792969 L 132.203125 73.679688 L 160.425781 60.78125 Z M 160.425781 99.898438 "/>
<path style=" stroke:none;fill-rule:nonzero;fill:rgb(89.411765%,77.254902%,29.803922%);fill-opacity:1;" d="M 31.359375 99.898438 L 59.582031 112.792969 L 59.582031 73.679688 L 31.359375 60.78125 Z M 31.359375 99.898438 "/>
<path style=" stroke:none;fill-rule:nonzero;fill:rgb(0%,0%,0%);fill-opacity:1;" d="M 132.199219 114.902344 C 131.800781 114.902344 131.402344 114.789062 131.058594 114.570312 C 130.457031 114.179688 130.089844 113.515625 130.089844 112.796875 L 130.089844 73.6875 C 130.089844 72.863281 130.574219 72.113281 131.320312 71.769531 L 159.554688 58.867188 C 160.210938 58.570312 160.964844 58.621094 161.574219 59.011719 C 162.175781 59.398438 162.539062 60.066406 162.539062 60.785156 L 162.539062 99.890625 C 162.539062 100.714844 162.058594 101.464844 161.308594 101.804688 L 133.074219 114.710938 C 132.792969 114.839844 132.496094 114.902344 132.199219 114.902344 Z M 134.304688 75.042969 L 134.304688 109.515625 L 158.324219 98.539062 L 158.324219 64.066406 Z M 160.433594 99.890625 L 160.453125 99.890625 Z M 160.433594 99.890625 "/>
<path style=" stroke:none;fill-rule:nonzero;fill:rgb(80.392157%,74.901961%,52.941176%);fill-opacity:1;" d="M 95.890625 63.347656 C 95.890625 33.257812 84.214844 20.25 56.730469 10.964844 L 56.730469 29.125 Z M 95.890625 63.347656 "/>
<path style=" stroke:none;fill-rule:nonzero;fill:rgb(0%,0%,0%);fill-opacity:1;" d="M 95.890625 65.457031 C 95.394531 65.457031 94.898438 65.277344 94.503906 64.933594 L 55.34375 30.714844 C 54.882812 30.3125 54.621094 29.734375 54.621094 29.125 L 54.621094 10.964844 C 54.621094 10.289062 54.949219 9.648438 55.5 9.253906 C 56.050781 8.855469 56.761719 8.75 57.402344 8.96875 C 86.996094 18.964844 98 33.703125 98 63.347656 C 98 64.175781 97.515625 64.925781 96.765625 65.269531 C 96.484375 65.394531 96.1875 65.457031 95.890625 65.457031 Z M 58.835938 28.171875 L 93.683594 58.621094 C 92.605469 34.917969 83.011719 22.71875 58.835938 13.9375 Z M 58.835938 28.171875 "/>
<path style=" stroke:none;fill-rule:nonzero;fill:rgb(80.392157%,74.901961%,52.941176%);fill-opacity:1;" d="M 95.890625 66.753906 L 95.890625 63.347656 C 95.890625 55.640625 92.066406 48.367188 85.574219 44.203125 C 66.695312 32.09375 44.890625 24.535156 21.261719 19.8125 C 21.261719 19.8125 3.164062 29.125 3.164062 29.125 L 85.519531 66.757812 L 95.890625 66.757812 Z M 95.890625 66.753906 "/>
<path style=" stroke:none;fill-rule:nonzero;fill:rgb(80.392157%,74.901961%,52.941176%);fill-opacity:1;" d="M 95.890625 66.753906 L 95.890625 63.347656 C 95.890625 55.640625 99.71875 48.367188 106.210938 44.203125 C 125.09375 32.09375 146.898438 24.535156 170.523438 19.8125 C 170.523438 19.8125 188.625 29.125 188.625 29.125 L 106.265625 66.753906 Z M 95.890625 66.753906 "/>
<path style=" stroke:none;fill-rule:nonzero;fill:rgb(0%,0%,0%);fill-opacity:1;" d="M 132.199219 129.953125 C 131.398438 129.953125 130.636719 129.496094 130.28125 128.722656 C 129.800781 127.664062 130.261719 126.414062 131.320312 125.929688 L 159.554688 113.03125 C 160.617188 112.546875 161.867188 113.015625 162.347656 114.070312 C 162.832031 115.128906 162.367188 116.378906 161.308594 116.863281 L 133.074219 129.761719 C 132.789062 129.894531 132.492188 129.953125 132.199219 129.953125 Z M 132.199219 129.953125 "/>
<path style=" stroke:none;fill-rule:nonzero;fill:rgb(0%,0%,0%);fill-opacity:1;" d="M 132.199219 145.007812 C 131.398438 145.007812 130.636719 144.550781 130.28125 143.777344 C 129.800781 142.71875 130.261719 141.46875 131.320312 140.984375 L 159.554688 128.082031 C 160.617188 127.59375 161.867188 128.0625 162.347656 129.121094 C 162.832031 130.179688 162.367188 131.429688 161.308594 131.914062 L 133.074219 144.816406 C 132.789062 144.945312 132.492188 145.007812 132.199219 145.007812 Z M 132.199219 145.007812 "/>
<path style=" stroke:none;fill-rule:nonzero;fill:rgb(0%,0%,0%);fill-opacity:1;" d="M 59.585938 114.902344 C 59.289062 114.902344 58.988281 114.839844 58.710938 114.710938 L 30.476562 101.808594 C 29.726562 101.46875 29.246094 100.71875 29.246094 99.894531 L 29.246094 60.789062 C 29.246094 60.070312 29.609375 59.402344 30.210938 59.015625 C 30.816406 58.628906 31.574219 58.574219 32.226562 58.871094 L 60.464844 71.773438 C 61.214844 72.117188 61.695312 72.867188 61.695312 73.691406 L 61.695312 112.796875 C 61.695312 113.515625 61.328125 114.183594 60.726562 114.574219 C 60.382812 114.789062 59.984375 114.902344 59.585938 114.902344 Z M 33.457031 98.539062 L 57.480469 109.515625 L 57.480469 75.042969 L 33.457031 64.066406 Z M 33.457031 98.539062 "/>
<path style=" stroke:none;fill-rule:nonzero;fill:rgb(0%,0%,0%);fill-opacity:1;" d="M 59.585938 129.953125 C 59.292969 129.953125 58.996094 129.894531 58.710938 129.761719 L 30.476562 116.863281 C 29.417969 116.378906 28.949219 115.128906 29.433594 114.070312 C 29.917969 113.011719 31.164062 112.546875 32.226562 113.03125 L 60.464844 125.929688 C 61.519531 126.414062 61.988281 127.664062 61.503906 128.722656 C 61.148438 129.496094 60.386719 129.953125 59.585938 129.953125 Z M 59.585938 129.953125 "/>
<path style=" stroke:none;fill-rule:nonzero;fill:rgb(0%,0%,0%);fill-opacity:1;" d="M 59.585938 145.007812 C 59.292969 145.007812 58.996094 144.945312 58.710938 144.816406 L 30.476562 131.914062 C 29.417969 131.429688 28.949219 130.179688 29.433594 129.121094 C 29.917969 128.0625 31.164062 127.597656 32.226562 128.082031 L 60.464844 140.984375 C 61.519531 141.46875 61.988281 142.71875 61.503906 143.777344 C 61.148438 144.550781 60.386719 145.007812 59.585938 145.007812 Z M 59.585938 145.007812 "/>
<path style=" stroke:none;fill-rule:nonzero;fill:rgb(0%,0%,0%);fill-opacity:1;" d="M 106.265625 182.929688 C 105.871094 182.929688 105.472656 182.8125 105.125 182.59375 C 104.523438 182.207031 104.15625 181.539062 104.15625 180.820312 L 104.15625 66.753906 C 104.15625 65.929688 104.640625 65.179688 105.390625 64.835938 L 187.746094 27.210938 C 188.398438 26.910156 189.15625 26.960938 189.761719 27.351562 C 190.367188 27.742188 190.730469 28.40625 190.730469 29.125 L 190.730469 143.191406 C 190.730469 144.015625 190.246094 144.765625 189.5 145.105469 L 107.140625 182.734375 C 106.863281 182.863281 106.5625 182.929688 106.265625 182.929688 Z M 108.375 68.109375 L 108.375 177.539062 L 186.515625 141.835938 L 186.515625 32.40625 Z M 188.621094 143.1875 L 188.644531 143.1875 Z M 188.621094 143.1875 "/>
<path style=" stroke:none;fill-rule:nonzero;fill:rgb(0%,0%,0%);fill-opacity:1;" d="M 85.519531 182.929688 C 85.222656 182.929688 84.921875 182.863281 84.644531 182.734375 L 2.285156 145.105469 C 1.539062 144.761719 1.054688 144.015625 1.054688 143.1875 L 1.054688 29.125 C 1.054688 28.410156 1.417969 27.742188 2.023438 27.355469 C 2.625 26.964844 3.382812 26.910156 4.035156 27.210938 L 86.394531 64.839844 C 87.144531 65.183594 87.625 65.929688 87.625 66.757812 L 87.625 180.824219 C 87.625 181.542969 87.261719 182.207031 86.65625 182.59375 C 86.3125 182.8125 85.917969 182.929688 85.519531 182.929688 Z M 5.269531 141.835938 L 83.410156 177.539062 L 83.410156 68.109375 L 5.269531 32.40625 Z M 5.269531 141.835938 "/>
<path style=" stroke:none;fill-rule:nonzero;fill:rgb(0%,0%,0%);fill-opacity:1;" d="M 106.265625 182.929688 L 85.519531 182.929688 C 84.355469 182.929688 83.410156 181.984375 83.410156 180.820312 L 83.410156 66.753906 C 83.410156 65.589844 84.355469 64.648438 85.519531 64.648438 L 106.265625 64.648438 C 107.429688 64.648438 108.375 65.589844 108.375 66.753906 L 108.375 180.820312 C 108.375 181.984375 107.429688 182.929688 106.265625 182.929688 Z M 87.625 178.714844 L 104.15625 178.714844 L 104.15625 68.863281 L 87.625 68.863281 Z M 87.625 178.714844 "/>
<path style=" stroke:none;fill-rule:nonzero;fill:rgb(0%,0%,0%);fill-opacity:1;" d="M 95.890625 68.863281 L 85.519531 68.863281 C 85.214844 68.863281 84.917969 68.796875 84.644531 68.671875 L 2.285156 31.042969 C 1.550781 30.707031 1.074219 29.984375 1.054688 29.175781 C 1.035156 28.367188 1.480469 27.621094 2.195312 27.25 L 20.296875 17.9375 C 20.71875 17.71875 21.207031 17.648438 21.675781 17.746094 C 47.640625 22.933594 68.914062 31.011719 86.710938 42.429688 C 93.78125 46.964844 98 54.785156 98 63.347656 L 98 66.753906 C 98 67.917969 97.054688 68.863281 95.890625 68.863281 Z M 85.980469 64.648438 L 93.785156 64.648438 L 93.785156 63.347656 C 93.785156 56.226562 90.289062 49.730469 84.4375 45.976562 C 67.253906 34.953125 46.683594 27.113281 21.570312 22.023438 L 7.988281 29.011719 Z M 85.980469 64.648438 "/>
<path style=" stroke:none;fill-rule:nonzero;fill:rgb(0%,0%,0%);fill-opacity:1;" d="M 106.265625 68.863281 L 95.890625 68.863281 C 94.730469 68.863281 93.785156 67.917969 93.785156 66.753906 L 93.785156 63.347656 C 93.785156 54.785156 98.003906 46.964844 105.070312 42.429688 C 122.871094 31.011719 144.144531 22.933594 170.109375 17.746094 C 170.582031 17.648438 171.0625 17.71875 171.488281 17.9375 L 189.585938 27.25 C 190.300781 27.621094 190.746094 28.367188 190.726562 29.175781 C 190.707031 29.984375 190.230469 30.707031 189.496094 31.042969 L 107.140625 68.671875 C 106.867188 68.796875 106.566406 68.863281 106.265625 68.863281 Z M 98 64.648438 L 105.804688 64.648438 L 183.796875 29.011719 L 170.214844 22.023438 C 145.105469 27.113281 124.535156 34.953125 107.347656 45.976562 C 101.496094 49.730469 98 56.226562 98 63.347656 Z M 98 64.648438 "/>
</g>
</svg>
